<svg id="eKzN1Gj97ra1" xmlns="http://www.w3.org/2000/svg" xmlns:xlink="http://www.w3.org/1999/xlink" viewBox="0 0 416.979 416.979" shape-rendering="geometricPrecision" text-rendering="geometricPrecision"><defs><filter id="eKzN1Gj97ra2-filter" x="-150%" width="400%" y="-150%" height="400%"><feComponentTransfer id="eKzN1Gj97ra2-filter-invert-0" result="result"><feFuncR id="eKzN1Gj97ra2-filter-invert-0-R" type="table" tableValues="1 0"/><feFuncG id="eKzN1Gj97ra2-filter-invert-0-G" type="table" tableValues="1 0"/><feFuncB id="eKzN1Gj97ra2-filter-invert-0-B" type="table" tableValues="1 0"/></feComponentTransfer></filter></defs><g filter="url(#eKzN1Gj97ra2-filter)"><path d="M356.004,61.156c-81.37-81.47-213.377-81.551-294.848-.182-81.47,81.371-81.552,213.379-.181,294.85c81.369,81.47,213.378,81.551,294.849.181c81.469-81.369,81.551-213.379.18-294.849ZM237.6,340.786c0,3.217-2.607,5.822-5.822,5.822h-46.576c-3.215,0-5.822-2.605-5.822-5.822v-172.901c0-3.217,2.607-5.822,5.822-5.822h46.576c3.215,0,5.822,2.604,5.822,5.822v172.901ZM208.49,137.901c-18.618,0-33.766-15.146-33.766-33.765c0-18.617,15.147-33.766,33.766-33.766s33.766,15.148,33.766,33.766c0,18.619-15.149,33.765-33.766,33.765Z"/></g></svg>